<?xml version="1.0" encoding="UTF-8"?>
<svg id="Layer_1" data-name="Layer 1" xmlns="http://www.w3.org/2000/svg" xmlns:xlink="http://www.w3.org/1999/xlink" viewBox="0 0 472.1 455.54">
  <defs>
    <style>
      .cls-1 {
        fill: url(#linear-gradient-2);
      }

      .cls-2 {
        fill: #fff;
      }

      .cls-3 {
        fill: url(#linear-gradient);
      }
    </style>
    <linearGradient id="linear-gradient" x1="358.07" y1="414.99" x2="94.99" y2="37.45" gradientUnits="userSpaceOnUse">
      <stop offset="0" stop-color="#ab1722"/>
      <stop offset="1" stop-color="#c01220"/>
    </linearGradient>
    <linearGradient id="linear-gradient-2" x1="0" y1="229.7" x2="452.53" y2="229.7" gradientUnits="userSpaceOnUse">
      <stop offset="0" stop-color="#971a23"/>
      <stop offset="1" stop-color="#ce1825"/>
    </linearGradient>
  </defs>
  <path class="cls-3" d="m181.33,454.7C71.44,446.66-1.72,338.46,14.08,203.82,31.7,53.66,126.46,8.62,172.97,1.73c75.26-11.15,202.98,31.98,263.42,122.65,52.96,79.44,44.76,148.43-9.76,216.03-54.52,67.61-131.01,122.65-245.3,114.29Z"/>
  <path class="cls-1" d="m409.91,386.41c-51.57,80.84-186.77,96.17-301.05,15.33C-14.33,314.61-8.22,223.33,9.9,162.01,28.91,97.66,126.98,17.06,235.17,5.88c98.47-10.17,165.17,24.57,198.43,104.56,33.27,79.99,21.01,205.89-23.69,275.97Z"/>
  <g>
    <rect class="cls-2" x="106.1" y="179.88" width="25.26" height="109.17"/>
    <path class="cls-2" d="m185.79,209.2c3.12-3.12,6.81-5.51,11.07-7.17,4.26-1.66,8.94-2.5,14.04-2.5,5.4,0,10.4,1.07,14.97,3.2,4.57,2.13,8.73,5.33,12.48,9.59l16.22-14.97c-5.2-6.34-11.62-11.15-19.26-14.43-7.64-3.28-16.19-4.91-25.65-4.91-8.53,0-16.38,1.38-23.55,4.13-7.17,2.76-13.44,6.68-18.79,11.78-5.36,5.09-9.51,11.07-12.48,17.93-2.96,6.86-4.44,14.4-4.44,22.61s1.48,15.75,4.44,22.61c2.96,6.86,7.1,12.84,12.4,17.93,5.3,5.1,11.56,9.02,18.79,11.78,7.23,2.75,15.05,4.13,23.47,4.13,9.56,0,18.17-1.66,25.81-4.99s14.06-8.16,19.26-14.5l-16.22-14.97c-3.74,4.37-7.9,7.62-12.48,9.75-4.58,2.13-9.57,3.2-14.97,3.2-5.1,0-9.77-.83-14.04-2.5-4.26-1.66-7.95-4.05-11.07-7.17-3.12-3.12-5.54-6.81-7.25-11.07-1.72-4.26-2.57-8.99-2.57-14.19s.86-9.93,2.57-14.19c1.71-4.26,4.13-7.96,7.25-11.07Z"/>
    <path class="cls-2" d="m342.99,264.79c-1.67.87-3.36,1.6-5.07,2.19-4.73,1.61-9.59,2.42-14.58,2.42s-9.96-.83-14.27-2.5c-4.32-1.66-8.06-4.08-11.23-7.25-3.17-3.17-5.62-6.89-7.33-11.15-1.72-4.26-2.57-8.94-2.57-14.04s.86-9.93,2.57-14.19c1.71-4.26,4.16-7.96,7.33-11.07,3.17-3.12,6.94-5.51,11.31-7.17,4.37-1.66,9.2-2.5,14.5-2.5s10.6,1.01,15.28,3.04c4.68,2.03,8.99,5.12,12.94,9.28l16.22-14.97c-5.3-6.13-11.83-10.81-19.57-14.04-7.75-3.22-16.45-4.83-26.12-4.83-8.73,0-16.74,1.38-24.02,4.13-7.28,2.76-13.62,6.68-19.03,11.78-5.41,5.09-9.59,11.07-12.55,17.93-2.96,6.86-4.44,14.4-4.44,22.61s1.48,15.75,4.44,22.61c2.96,6.86,7.12,12.84,12.48,17.93,5.35,5.1,11.64,9.02,18.87,11.78,7.22,2.75,15.15,4.13,23.78,4.13,7.8,0,15.62-1.2,23.47-3.59,7.85-2.39,14.74-5.82,20.66-10.29v-44.29h-23.08v32.05Z"/>
  </g>
  <g>
    <rect class="cls-2" x="106.1" y="179.88" width="25.26" height="109.17"/>
    <path class="cls-2" d="m185.79,209.2c3.12-3.12,6.81-5.51,11.07-7.17,4.26-1.66,8.94-2.5,14.04-2.5,5.4,0,10.4,1.07,14.97,3.2,4.57,2.13,8.73,5.33,12.48,9.59l16.22-14.97c-5.2-6.34-11.62-11.15-19.26-14.43-7.64-3.28-16.19-4.91-25.65-4.91-8.53,0-16.38,1.38-23.55,4.13-7.17,2.76-13.44,6.68-18.79,11.78-5.36,5.09-9.51,11.07-12.48,17.93-2.96,6.86-4.44,14.4-4.44,22.61s1.48,15.75,4.44,22.61c2.96,6.86,7.1,12.84,12.4,17.93,5.3,5.1,11.56,9.02,18.79,11.78,7.23,2.75,15.05,4.13,23.47,4.13,9.56,0,18.17-1.66,25.81-4.99s14.06-8.16,19.26-14.5l-16.22-14.97c-3.74,4.37-7.9,7.62-12.48,9.75-4.58,2.13-9.57,3.2-14.97,3.2-5.1,0-9.77-.83-14.04-2.5-4.26-1.66-7.95-4.05-11.07-7.17-3.12-3.12-5.54-6.81-7.25-11.07-1.72-4.26-2.57-8.99-2.57-14.19s.86-9.93,2.57-14.19c1.71-4.26,4.13-7.96,7.25-11.07Z"/>
    <path class="cls-2" d="m342.99,264.79c-1.67.87-3.36,1.6-5.07,2.19-4.73,1.61-9.59,2.42-14.58,2.42s-9.96-.83-14.27-2.5c-4.32-1.66-8.06-4.08-11.23-7.25-3.17-3.17-5.62-6.89-7.33-11.15-1.72-4.26-2.57-8.94-2.57-14.04s.86-9.93,2.57-14.19c1.71-4.26,4.16-7.96,7.33-11.07,3.17-3.12,6.94-5.51,11.31-7.17,4.37-1.66,9.2-2.5,14.5-2.5s10.6,1.01,15.28,3.04c4.68,2.03,8.99,5.12,12.94,9.28l16.22-14.97c-5.3-6.13-11.83-10.81-19.57-14.04-7.75-3.22-16.45-4.83-26.12-4.83-8.73,0-16.74,1.38-24.02,4.13-7.28,2.76-13.62,6.68-19.03,11.78-5.41,5.09-9.59,11.07-12.55,17.93-2.96,6.86-4.44,14.4-4.44,22.61s1.48,15.75,4.44,22.61c2.96,6.86,7.12,12.84,12.48,17.93,5.35,5.1,11.64,9.02,18.87,11.78,7.22,2.75,15.15,4.13,23.78,4.13,7.8,0,15.62-1.2,23.47-3.59,7.85-2.39,14.74-5.82,20.66-10.29v-44.29h-23.08v32.05Z"/>
  </g>
  <g>
    <rect class="cls-2" x="106.1" y="179.88" width="25.26" height="109.17"/>
    <path class="cls-2" d="m185.79,209.2c3.12-3.12,6.81-5.51,11.07-7.17,4.26-1.66,8.94-2.5,14.04-2.5,5.4,0,10.4,1.07,14.97,3.2,4.57,2.13,8.73,5.33,12.48,9.59l16.22-14.97c-5.2-6.34-11.62-11.15-19.26-14.43-7.64-3.28-16.19-4.91-25.65-4.91-8.53,0-16.38,1.38-23.55,4.13-7.17,2.76-13.44,6.68-18.79,11.78-5.36,5.09-9.51,11.07-12.48,17.93-2.96,6.86-4.44,14.4-4.44,22.61s1.48,15.75,4.44,22.61c2.96,6.86,7.1,12.84,12.4,17.93,5.3,5.1,11.56,9.02,18.79,11.78,7.23,2.75,15.05,4.13,23.47,4.13,9.56,0,18.17-1.66,25.81-4.99s14.06-8.16,19.26-14.5l-16.22-14.97c-3.74,4.37-7.9,7.62-12.48,9.75-4.58,2.13-9.57,3.2-14.97,3.2-5.1,0-9.77-.83-14.04-2.5-4.26-1.66-7.95-4.05-11.07-7.17-3.12-3.12-5.54-6.81-7.25-11.07-1.72-4.26-2.57-8.99-2.57-14.19s.86-9.93,2.57-14.19c1.71-4.26,4.13-7.96,7.25-11.07Z"/>
    <path class="cls-2" d="m342.99,264.79c-1.67.87-3.36,1.6-5.07,2.19-4.73,1.61-9.59,2.42-14.58,2.42s-9.96-.83-14.27-2.5c-4.32-1.66-8.06-4.08-11.23-7.25-3.17-3.17-5.62-6.89-7.33-11.15-1.72-4.26-2.57-8.94-2.57-14.04s.86-9.93,2.57-14.19c1.71-4.26,4.16-7.96,7.33-11.07,3.17-3.12,6.94-5.51,11.31-7.17,4.37-1.66,9.2-2.5,14.5-2.5s10.6,1.01,15.28,3.04c4.68,2.03,8.99,5.12,12.94,9.28l16.22-14.97c-5.3-6.13-11.83-10.81-19.57-14.04-7.75-3.22-16.45-4.83-26.12-4.83-8.73,0-16.74,1.38-24.02,4.13-7.28,2.76-13.62,6.68-19.03,11.78-5.41,5.09-9.59,11.07-12.55,17.93-2.96,6.86-4.44,14.4-4.44,22.61s1.48,15.75,4.44,22.61c2.96,6.86,7.12,12.84,12.48,17.93,5.35,5.1,11.64,9.02,18.87,11.78,7.22,2.75,15.15,4.13,23.78,4.13,7.8,0,15.62-1.2,23.47-3.59,7.85-2.39,14.74-5.82,20.66-10.29v-44.29h-23.08v32.05Z"/>
  </g>
</svg>