<?xml version="1.0" encoding="UTF-8"?>
<svg id="Layer_1" data-name="Layer 1" xmlns="http://www.w3.org/2000/svg" xmlns:xlink="http://www.w3.org/1999/xlink" viewBox="0 0 472.1 455.54">
  <defs>
    <style>
      .cls-1 {
        fill: url(#linear-gradient-2);
      }

      .cls-2 {
        fill: url(#linear-gradient);
      }
    </style>
    <linearGradient id="linear-gradient" x1="358.07" y1="414.99" x2="94.99" y2="37.45" gradientUnits="userSpaceOnUse">
      <stop offset="0" stop-color="#ab1722"/>
      <stop offset="1" stop-color="#c01220"/>
    </linearGradient>
    <linearGradient id="linear-gradient-2" x1="0" y1="229.7" x2="452.53" y2="229.7" gradientUnits="userSpaceOnUse">
      <stop offset="0" stop-color="#971a23"/>
      <stop offset="1" stop-color="#ce1825"/>
    </linearGradient>
  </defs>
  <path class="cls-2" d="m181.33,454.7C71.44,446.66-1.72,338.46,14.08,203.82,31.7,53.66,126.46,8.62,172.97,1.73c75.26-11.15,202.98,31.98,263.42,122.65,52.96,79.44,44.76,148.43-9.76,216.03-54.52,67.61-131.01,122.65-245.3,114.29Z"/>
  <path class="cls-1" d="m409.91,386.41c-51.57,80.84-186.77,96.17-301.05,15.33C-14.33,314.61-8.22,223.33,9.9,162.01,28.91,97.66,126.98,17.06,235.17,5.88c98.47-10.17,165.17,24.57,198.43,104.56,33.27,79.99,21.01,205.89-23.69,275.97Z"/>
</svg>