<svg width="104" height="49" viewBox="0 0 104 49" fill="none" xmlns="http://www.w3.org/2000/svg">
<path d="M72.9813 48.1179H67.3347L61.303 39.9429V48.1179H56.518V30.9143C56.5374 30.7144 56.6375 30.5303 56.7967 30.4024C56.9554 30.2745 57.1597 30.2133 57.365 30.2321H61.303V37.85L67.4227 30.2321H72.7393L65.8497 38.55L72.9813 48.1179ZM48.3193 41.3321C47.2743 39.4857 40.9383 30.2607 40.9383 30.2607H35.9187V48.1179H40.5717V36.8357L48.2717 48.1321H52.9027V30.2321H48.3193V41.3321ZM28.1527 30.2607L33.715 48.1179H28.798L27.8887 45.1036H21.56L20.6837 48.1179H15.7593L21.2227 30.8464C21.2741 30.6552 21.394 30.4882 21.5608 30.3756C21.7275 30.2629 21.9301 30.2121 22.132 30.2321L28.1527 30.2607ZM27.0747 41.6893L24.827 33.6786H24.6033L22.3557 41.6893H27.0747ZM14.7547 43.2C14.7693 46.8107 11.6893 48.1179 7.47633 48.1179H0V31.0357C0.00046845 30.9288 0.0227366 30.823 0.065512 30.7246C0.108287 30.6261 0.170719 30.5369 0.249178 30.4622C0.327638 30.3874 0.420563 30.3286 0.522559 30.2891C0.624558 30.2496 0.73359 30.2303 0.843333 30.2321H7.56067C10.956 30.2321 14.025 31.2643 14.025 34.6786C14.025 36.8214 13.156 38.3286 11.2897 38.8214C13.244 39.1893 14.7693 40.5964 14.7693 43.1786L14.7547 43.2ZM4.389 37.4214H6.95567C8.83667 37.4214 9.66533 36.8321 9.66533 35.4321C9.66533 34.0857 8.778 33.4964 7.06933 33.4964H4.39267L4.389 37.4214ZM10.2557 42.7214C10.2557 41.2179 9.34633 40.5786 7.41033 40.5786H4.389V44.8643H7.25633C9.163 44.8464 10.2667 44.2571 10.2667 42.7214H10.2557ZM20.944 21.7821H0V26.3607H20.955L20.944 21.7821ZM65.8607 13.0929L67.9617 18.2571H63.0227L60.841 13.3321C60.3937 12.3286 60.082 11.8321 59.1397 11.8321H57.2257V18.2607H52.6093V1.075C52.6288 0.891954 52.712 0.720971 52.8455 0.590861C52.9793 0.46075 53.1546 0.379471 53.3427 0.360714H59.8657C63.4077 0.360714 66.4437 1.075 66.4437 5.53571C66.4437 7.53214 65.3107 9.575 63.184 9.98929C64.2253 10.3321 65.2923 11.6571 65.8717 13.0929H65.8607ZM61.9923 5.87857C61.9923 4.15357 60.8923 3.80714 59.5247 3.80714H57.2147V8.29643H59.5247C60.918 8.29643 62.0033 7.57857 62.0033 5.87857H61.9923ZM28.589 0.357143H24.5557V18.2571H29.2893V1.075C29.2836 0.892404 29.2091 0.718257 29.0799 0.585829C28.9507 0.453404 28.7759 0.371989 28.589 0.357143ZM48.312 7.95357H42.3427V11.6107H44.616V14.7643C43.9366 14.8499 43.2516 14.8893 42.5663 14.8821C39.1087 14.8821 37.235 12.7393 37.235 9.28571C37.235 6.04643 38.852 3.80714 42.317 3.80714C43.7892 3.86264 45.2371 4.18861 46.585 4.76786L48.4403 1.68929C46.9407 0.703571 44.616 0.014286 41.965 0.014286C35.9407 0.014286 32.329 3.80714 32.329 9.3C32.329 15.4393 35.9407 18.6179 42.7937 18.6179C44.8958 18.6169 46.9931 18.4196 49.0563 18.0286V8.76786C49.0666 8.66596 49.0549 8.56311 49.0222 8.46579C48.9896 8.36846 48.9368 8.27879 48.8668 8.20232C48.7971 8.12586 48.7117 8.06429 48.616 8.02146C48.5206 7.97868 48.4172 7.95557 48.312 7.95357ZM87.0063 9.28571C87.0063 14.4679 83.8163 18.6036 78.1807 18.6036C72.1637 18.6036 68.981 14.4679 68.981 9.28571C68.981 4.10357 72.1637 0 78.1807 0C83.8163 0.0142857 87.0063 4.15357 87.0063 9.28571ZM82.049 9.28571C82.049 5.53214 80.3073 3.80714 78.1807 3.80714C75.702 3.80714 73.9383 5.53214 73.9383 9.28571C73.9383 13.0929 75.702 14.8107 78.1807 14.8107C80.3073 14.8107 82.049 13.0929 82.049 9.28571ZM97.2877 7.07857C95.7 6.61429 94.435 6.14286 94.435 5.21429C94.435 4.28571 95.4213 3.63214 97.163 3.63214C98.6077 3.63214 99.8983 4.20357 101.16 4.93571L103.723 2.10714C102.564 1.03571 100.291 0.014286 97.3537 0.014286C92.9097 0.014286 89.496 2.10714 89.496 5.85357C89.496 9.32857 92.5833 10.3536 95.2343 11.0964C97.4343 11.7071 99.1063 12.0786 99.1063 13.2821C99.1063 14.5643 97.6067 14.7857 96.4187 14.7857C94.325 14.7857 92.0517 13.7143 90.882 13.0393L88.7883 16.6571C90.0753 17.5214 92.961 18.6036 96.0667 18.6036C100.921 18.6036 103.95 16.0679 103.95 12.375C103.935 8.78929 100.1 7.925 97.2877 7.07857ZM10.615 10.4679L6.292 0.357143H0V18.2571H4.70067V7.925L9.17767 18.2571H11.6893L16.236 7.925V18.2571H20.9403V0.357143H15.1397L10.615 10.4679Z" fill="url(#paint0_linear_438_70190)"/>
<defs>
<linearGradient id="paint0_linear_438_70190" x1="1.99467" y1="-3.01072" x2="93.0725" y2="50.9724" gradientUnits="userSpaceOnUse">
<stop stop-color="#FF8C28"/>
<stop offset="1" stop-color="#D9007E"/>
</linearGradient>
</defs>
</svg>
