<svg width="104" height="30" viewBox="0 0 104 30" fill="none" xmlns="http://www.w3.org/2000/svg">
<path d="M59.7044 8.46631H51.0879V0H44.2248V29.406H59.7044C65.2568 29.406 68.0817 26.7021 68.0817 21.3564V16.5248C68.0817 11.1879 65.2568 8.46631 59.7044 8.46631ZM61.2275 21.6933C61.2275 23.5284 60.2534 24.4149 58.252 24.4149H51.0879V13.4663H58.252C60.2534 13.4663 61.2275 14.3883 61.2275 16.2677V21.7021V21.6933ZM71.438 29.406H78.2922V0H71.438V29.406ZM15.4176 18.4131C15.4176 16.2766 17.1533 14.539 19.2963 14.539C21.4305 14.539 23.1751 16.2766 23.1751 18.4131C23.1751 20.5585 21.4305 22.2961 19.2963 22.2961C17.1533 22.2961 15.4176 20.5585 15.4176 18.4131ZM22.626 6.94149C21.767 6.97695 21.0143 7.30496 20.8815 8.12057L20.3501 12.4291C23.2016 12.9344 25.3713 15.4255 25.3713 18.4131C25.3713 21.7731 22.6526 24.5035 19.2963 24.5035C15.9401 24.5035 13.2214 21.7731 13.2214 18.4131C13.2214 15.4255 15.3822 12.9344 18.2337 12.4291L17.7112 8.12057C17.5606 7.30496 16.8168 6.97695 15.9578 6.94149H0L2.84264 12.0479C3.6485 13.3954 4.99455 13.4574 5.18937 13.4574H9.2718C8.29768 15.0887 7.73978 16.8351 7.73978 18.4043C7.73978 24.8138 12.9114 30 19.2875 30C25.6546 30 30.8263 24.8138 30.8263 18.4043C30.8263 16.8262 30.2772 15.0887 29.2943 13.4574H33.3856C33.5804 13.4574 34.9353 13.3865 35.7323 12.0479L38.5838 6.94149H22.6349H22.626ZM104.009 23.2269C104.009 26.7287 101.255 29.406 96.6321 29.406H81.6485V24.4149H96.0654C96.9687 24.4149 97.5266 24.0426 97.5266 23.3865C97.5266 22.8014 97.1546 22.2961 96.0388 22.1631C95.4101 22.0922 89.8311 21.4096 88.1131 21.1968C83.1894 20.6028 81.5599 17.6773 81.5599 14.6454C81.5599 11.1436 84.314 8.46631 88.9455 8.46631H103.185V13.4574H89.5123C88.609 13.4574 88.0511 13.8387 88.0511 14.4858C88.0511 15.0709 88.4319 15.5762 89.5388 15.7092C90.1676 15.7801 95.7554 16.4628 97.4734 16.6667C102.397 17.2606 104.018 20.1862 104.018 23.2181" fill="#052E9D"/>
</svg>
