<?xml version="1.0" encoding="UTF-8"?>
<svg id="Layer_1" data-name="Layer 1" xmlns="http://www.w3.org/2000/svg" viewBox="0 0 512 515.53">
  <defs>
    <style>
      .cls-1 {
        fill: #fff;
      }

      .cls-2 {
        fill: #b42e25;
      }
    </style>
  </defs>
  <path class="cls-2" d="m46.21,92.65C113.43-8.19,236.98-35.06,377.27,53.91c144.4,91.57,144.4,183.14,126.79,257.1-17.61,73.96-126.79,172.58-232.45,197.23-105.66,24.65-200.75-14.09-243.01-102.14C-13.66,318.05-10.14,177.17,46.21,92.65Z"/>
  <g>
    <rect class="cls-1" x="113.29" y="198.31" width="27.52" height="118.92"/>
    <path class="cls-1" d="m200.11,230.24c3.4-3.4,7.42-6,12.06-7.81,4.64-1.81,9.74-2.72,15.29-2.72,5.89,0,11.32,1.16,16.31,3.48,4.98,2.32,9.51,5.8,13.59,10.45l17.67-16.31c-5.66-6.91-12.66-12.15-20.98-15.71-8.33-3.57-17.64-5.35-27.95-5.35-9.29,0-17.84,1.5-25.65,4.5-7.81,3-14.64,7.28-20.47,12.83-5.83,5.55-10.36,12.06-13.59,19.54-3.23,7.48-4.84,15.69-4.84,24.63s1.61,17.16,4.84,24.63c3.23,7.47,7.73,13.99,13.51,19.54,5.78,5.55,12.6,9.83,20.47,12.83,7.87,3,16.39,4.5,25.57,4.5,10.42,0,19.79-1.81,28.12-5.44s15.32-8.89,20.98-15.8l-17.67-16.31c-4.08,4.76-8.61,8.3-13.59,10.62-4.98,2.32-10.42,3.48-16.31,3.48-5.55,0-10.65-.91-15.29-2.72-4.65-1.81-8.66-4.42-12.06-7.81-3.4-3.4-6.03-7.42-7.9-12.06-1.87-4.64-2.8-9.79-2.8-15.46s.93-10.82,2.8-15.46c1.87-4.64,4.5-8.67,7.9-12.06Z"/>
    <path class="cls-1" d="m371.35,290.81c-1.82.95-3.66,1.75-5.52,2.38-5.16,1.76-10.45,2.63-15.89,2.63s-10.85-.91-15.54-2.72c-4.7-1.81-8.78-4.44-12.23-7.9-3.46-3.45-6.12-7.5-7.99-12.15-1.87-4.64-2.8-9.74-2.8-15.29s.93-10.82,2.8-15.46c1.87-4.64,4.53-8.67,7.99-12.06,3.45-3.4,7.56-6,12.32-7.81,4.76-1.81,10.02-2.72,15.8-2.72s11.55,1.1,16.65,3.31c5.1,2.21,9.8,5.58,14.1,10.11l17.67-16.31c-5.78-6.68-12.89-11.78-21.32-15.29-8.44-3.51-17.92-5.27-28.46-5.27-9.51,0-18.24,1.5-26.16,4.5-7.93,3-14.84,7.28-20.73,12.83-5.89,5.55-10.45,12.06-13.68,19.54-3.23,7.48-4.84,15.69-4.84,24.63s1.61,17.16,4.84,24.63c3.23,7.47,7.76,13.99,13.59,19.54,5.83,5.55,12.68,9.83,20.56,12.83,7.87,3,16.51,4.5,25.91,4.5,8.49,0,17.02-1.3,25.57-3.91,8.55-2.61,16.05-6.34,22.51-11.21v-48.25h-25.14v34.91Z"/>
  </g>
</svg>